<svg xmlns="http://www.w3.org/2000/svg" xmlns:xlink="http://www.w3.org/1999/xlink" viewBox="0 0 400 300" width="406" height="306" class="illustration"><defs><linearGradient id="linear-gradient" x1="281.14" y1="259.99" x2="263.9" y2="221.56" gradientUnits="userSpaceOnUse"><stop offset="0" stop-color="#fff" stop-opacity="0"></stop><stop offset="1" stop-color="#297600"></stop></linearGradient></defs><title>PP</title><g style="isolation: isolate;"><g id="Layer_2" data-name="Layer 2"><path d="M195.22,288.83,15.5,182.61c-5.72-3.21-10.63-8.49-5.05-11.94l180.37-104c2.71-1.68,6.82-2.78,9.57-1.18L389,175c5.72,3.32,6.75,12.6,1,15.93L218.91,288.66A23.9,23.9,0,0,1,195.22,288.83Z" fill="#96c168"></path><path d="M286.93,249.94c16-9.65,31.92-18.27,48.08-27.55-15.88-10.73-23.91-14.27-36.07-21.78l-91.65,52.45,34.38,22.62C256.81,267.79,272.3,258.79,286.93,249.94Z" opacity="0.63" fill="url(#linear-gradient)" style="mix-blend-mode: multiply;"></path><polyline points="87.58 180.47 87.58 184.41 89.58 186.86" fill="#adcee1"></polyline><path d="M166.85,132.44l-77,47.73a4.77,4.77,0,0,0,.16,8.21l116.86,66.1a10.7,10.7,0,0,0,10.69-.09l76.66-45.06c5.57-4.58,5.15-13.19,0-13.55L178,132.25A10.86,10.86,0,0,0,166.85,132.44Z" fill="#88d3d8"></path><path d="M166.85,129.15l-77,47.73a4.77,4.77,0,0,0,.16,8.21l116.86,66.1a10.7,10.7,0,0,0,10.69-.09L294.22,206a5.94,5.94,0,0,0,0-10.27L178,129A10.86,10.86,0,0,0,166.85,129.15Z" fill="#fff"></path><path d="M170,122.63S202,19.41,201.77,19.41s1-4.59,6.71-2L331.21,89.66s6,2.41,4.79,8-31.26,101-31.26,101a5.19,5.19,0,0,1-5.8,2c-3.74-1.16-126.08-72.22-126.08-72.22S168.79,126.87,170,122.63Z" fill="#053855"></path><polygon points="203.81 26.91 329.49 100.18 303.42 187.7 176.13 116.61 203.81 26.91" fill="#ffa197"></polygon><path d="M162.12,140.09,134,157.63a3.4,3.4,0,0,0,.11,5.83l101.06,57.61a9.94,9.94,0,0,0,9.93,0c6.5-3.79,17.68-10.61,24.53-14.8a4.13,4.13,0,0,0-.08-7.1C249.08,187.25,182.4,148.47,167.8,140A5.5,5.5,0,0,0,162.12,140.09Z" fill="#68e1fd"></path><path d="M163.63,187.7l35.31,19.85a3.53,3.53,0,0,1,.05,6.12l-20.76,12.15a4.69,4.69,0,0,1-4.69,0l-36.13-20.6a3,3,0,0,1,0-5.12L159,187.72A4.69,4.69,0,0,1,163.63,187.7Z" fill="#68e1fd"></path><path d="M162.12,140.09,134,157.63a3.4,3.4,0,0,0,.11,5.83l101.06,57.61a9.94,9.94,0,0,0,9.93,0c6.5-3.79,17.68-10.61,24.53-14.8a4.13,4.13,0,0,0-.08-7.1C249.08,187.25,182.4,148.47,167.8,140A5.5,5.5,0,0,0,162.12,140.09Z" fill="#053855" opacity="0.1"></path><path d="M163.63,187.7l35.31,19.85a3.53,3.53,0,0,1,.05,6.12l-20.76,12.15a4.69,4.69,0,0,1-4.69,0l-36.13-20.6a3,3,0,0,1,0-5.12L159,187.72A4.69,4.69,0,0,1,163.63,187.7Z" fill="#053855" opacity="0.1"></path><path d="M176.85,88.54S162.58,88.06,166.6,71c-1.32,3.28-4,7.42-9.1,7.59s-8.1-4-9.67-7.43c1.3,4.17,2.61,10.25,0,12.12-4.1,2.93-10.26,3.81-10.26,3.81s11,.11,11.08,4.4-2.14,9.39-2.14,9.39,13.05-9.41,18.76,1.31C165.27,102.18,162.8,90,176.85,88.54Z" fill="#ffc543"></path><path d="M164.18,86.58S80,106.7,81,148.32s36.51,34.91,36.51,34.91-38.75,3.12-45.21-25S103.76,89.81,164.18,86.58Z" fill="#fad374"></path><line x1="230.43" y1="76.21" x2="301.79" y2="118.14" fill="#a2c609"></line><g opacity="0.5"><path d="M287.82,104.94l-67-39.34c-7-4.14-11.36,8.28-3.56,12.6,23.73,13.95,46.92,27.32,70.52,41.12Z" fill="#fff"></path></g><path d="M302.5,113.57l-14.68-8.63-4.43,11.8,14.84,8.69C305.27,129.56,309.54,117.7,302.5,113.57Z" fill="#fff"></path><path d="M295,120.12c-1.53,0-3.09-1.35-3.72-3.35-.73-2.33.08-4.67,1.82-5.21s3.74.91,4.47,3.24a5.31,5.31,0,0,1,0,3.2,2.94,2.94,0,0,1-1.87,2A2.52,2.52,0,0,1,295,120.12Zm-1.15-7.67a1.49,1.49,0,0,0-.45.07c-1.21.38-1.73,2.15-1.16,4s2,3,3.21,2.58a2,2,0,0,0,1.21-1.37,4.31,4.31,0,0,0-.05-2.59C296.16,113.55,295,112.45,293.89,112.45Z" fill="#053855"></path><rect x="297.98" y="118.16" width="1" height="5.55" transform="translate(-1.08 239.17) rotate(-43.6)" fill="#053855"></rect><polygon points="196.15 79.38 187.53 107.32 207.17 118.14 216.41 91.19 196.15 79.38" fill="#fff" opacity="0.53"></polygon><polygon points="222.76 95.06 214.13 122.99 233.78 133.81 243.02 106.86 222.76 95.06" fill="#fff" opacity="0.53"></polygon><polygon points="251.2 111.43 242.58 139.37 262.22 150.19 271.46 123.24 251.2 111.43" fill="#fff" opacity="0.53"></polygon><path d="M170,164.87S135.78,167,113.28,199.2c0,0,24.26,17.9,73.75,4.52" fill="#eb773a"></path><path d="M167.67,169.2s-16.56,5.2-23.27,11.16-16,14.87-16,14.87,19.91,11.16,44.81,8.07S189.69,169.54,167.67,169.2Z" fill="#ffae46"></path><path d="M181,170.8c-1.26.87-16.48,2.19-23.22,11l5.31-1.2s-11,6.36-16.31,10.47c0,0,19.36.93,18.67,1.08l-6.23,1.4s12.58,5.4,24.49,1.67S190,173,190,173Z" fill="#fad374"></path><path d="M217.64,187.34s-8.45,12.91-14.61,14.28-26.14,5.89-26.14,5.89l-1-4.38s18.56-13.61,24-20.85S217.64,187.34,217.64,187.34Z" fill="#68e1fd"></path><path d="M217.64,187.34s-8.45,12.91-14.61,14.28-26.14,5.89-26.14,5.89l-1-4.38s18.56-13.61,24-20.85S217.64,187.34,217.64,187.34Z" fill="#363636" opacity="0.61"></path><path d="M211.73,161.07s-13.17-8-19.32-6.64-26.14,5.89-26.14,5.89l1,4.38s22.61,4.34,30.66,8.53S211.73,161.07,211.73,161.07Z" fill="#68e1fd"></path><path d="M211.73,161.07s-13.17-8-19.32-6.64-26.14,5.89-26.14,5.89l1,4.38s22.61,4.34,30.66,8.53S211.73,161.07,211.73,161.07Z" fill="#363636" opacity="0.61"></path><path d="M289.29,168.2a93.23,93.23,0,0,0,17.24-14.39s-8.14-3.59-21.89-5.5C282.79,154.94,285.48,162.11,289.29,168.2Z" fill="#68e1fd"></path><ellipse cx="243.02" cy="167.82" rx="9.6" ry="10.91" transform="translate(-30.94 57.52) rotate(-12.7)" fill="#68e1fd"></ellipse><path d="M344.72,144.91s-84.91-15.72-149.22,22.82c0,0-13.56,5.55-11.58,13s18.55,9.76,18.55,9.76S256.87,198.69,344.72,144.91Z" fill="#68e1fd"></path><path d="M195.51,167.73s-9.08-5.54-13.31-4.58l-18,4.06.68,3s15.58,3,21.12,5.88S195.51,167.73,195.51,167.73Z" fill="#68e1fd"></path><path d="M200.14,188.28s-5.83,8.9-10.07,9.84l-18,4.06-.68-3s12.79-9.38,16.56-14.37S200.14,188.28,200.14,188.28Z" fill="#68e1fd"></path><path d="M195.51,167.73s-9.08-5.54-13.31-4.58l-18,4.06.68,3s15.58,3,21.12,5.88S195.51,167.73,195.51,167.73Z" fill="#363636" opacity="0.29"></path><path d="M200.14,188.28s-5.83,8.9-10.07,9.84l-18,4.06-.68-3s12.79-9.38,16.56-14.37S200.14,188.28,200.14,188.28Z" fill="#363636" opacity="0.29"></path><path d="M301.44,141.74s-6.13,12.78,5.35,23.77l-12,5.4S282,153.47,290.43,142Z" fill="#68e1fd"></path><path d="M238.86,149.36s-9.78,21.91,7.77,37.4l-19.84,3.46s-18.42-17.53-5.51-35.11Z" fill="#68e1fd"></path><circle cx="276.38" cy="159.66" r="3.38" transform="translate(-28.33 64.65) rotate(-12.7)" fill="#68e1fd"></circle><circle cx="257.02" cy="164.03" r="8.82" transform="translate(-29.77 60.5) rotate(-12.7)" fill="#68e1fd"></circle><path d="M301.44,141.74s-6.13,12.78,5.35,23.77l-12,5.4S282,153.47,290.43,142Z" fill="#606060" opacity="0.61"></path><path d="M238.86,149.36s-9.78,21.91,7.77,37.4l-19.84,3.46s-18.42-17.53-5.51-35.11Z" fill="#606060" opacity="0.61"></path><circle cx="276.38" cy="159.66" r="3.38" transform="translate(-28.33 64.65) rotate(-12.7)" fill="#606060" opacity="0.61"></circle><circle cx="257.02" cy="164.03" r="8.82" transform="translate(-29.77 60.5) rotate(-12.7)" fill="#606060" opacity="0.61"></circle></g></g></svg>