<svg xmlns="http://www.w3.org/2000/svg" xmlns:xlink="http://www.w3.org/1999/xlink" viewBox="0 0 400 300" width="406" height="306" class="illustration"><defs><linearGradient id="linear-gradient" x1="253.65" y1="217.39" x2="221.45" y2="182.92" gradientUnits="userSpaceOnUse"><stop offset="0" stop-color="#fff" stop-opacity="0"></stop><stop offset="1" stop-color="#9e005d"></stop></linearGradient><linearGradient id="linear-gradient-2" x1="366.32" y1="205.22" x2="358.14" y2="191.19" xlink:href="#linear-gradient"></linearGradient></defs><title>PP</title><g style="isolation: isolate;"><g id="Layer_2" data-name="Layer 2"><path d="M195.22,288.83,15.5,182.61c-5.72-3.21-10.63-8.49-5.05-11.94l180.37-104c2.71-1.68,6.82-2.78,9.57-1.18L389,175c5.72,3.32,6.75,12.6,1,15.93L218.91,288.66A23.9,23.9,0,0,1,195.22,288.83Z" fill="#ff9240"></path><path d="M225.61,164.6l-42,24.22,32.25,51.85c.36,0,28.77,2.51,26.05-7,16.7-9.21,40.34-29.25,52.21-36.58C274.52,188.38,245.46,173.79,225.61,164.6Z" opacity="0.63" fill="url(#linear-gradient)" style="mix-blend-mode: multiply;"></path><path d="M258.55,73.78V27.69a1.92,1.92,0,0,0-1.92-1.92h-1.88a1.92,1.92,0,0,0-1.92,1.92V72.83A3.56,3.56,0,0,0,254.76,76l.06,0A2.53,2.53,0,0,0,258.55,73.78Z" fill="#68e1fd"></path><path d="M223.41,163.54l18.21,8.77a4.19,4.19,0,0,1,.29,7.4l-43.16,25.18a4.19,4.19,0,0,1-5.64-1.35l-10.49-16.31" fill="#56403d"></path><path d="M124.33,121.37,269.57,37.69a6.55,6.55,0,0,1,9.82,5.68v87a5.45,5.45,0,0,1-2.72,4.72L121.86,224.49a3.51,3.51,0,0,1-5.27-3V134.77A15.46,15.46,0,0,1,124.33,121.37Z" fill="#68e1fd"></path><path d="M269.56,44.27l-140.82,81a9.87,9.87,0,0,0-4.95,8.56v65.25a3.57,3.57,0,0,0,5.34,3.09l143.62-82.42a3.52,3.52,0,0,0,1.77-3V47.14A3.31,3.31,0,0,0,269.56,44.27Z" fill="#fff"></path><ellipse cx="210.96" cy="163.9" rx="3.5" ry="3.06" transform="translate(10.12 340.05) rotate(-79.1)" fill="#ab643c"></ellipse><polygon points="127.32 65.85 127.32 111.51 192.86 73.9 192.86 29.43 127.32 65.85" fill="#68e1fd"></polygon><path d="M123.11,110.05c.2-3.4.07-6.85.66-10.22.64-3.66,2.19-6.11,4.3-9.07.19-.27.49-.77.83-1.3a2.16,2.16,0,0,1,3.07-.59c2.13,1.52,5.38,4.19,4.76,6-.9,2.62-2.82-.73-2.82-.73s3,3.54,1.92,4.75-3.14-1.41-3.14-1.41,3.49,4,2.09,5.23-3.31-1.92-3.31-1.92,1.15,4.36-1.52,5.58v4.45" fill="#ffac73"></path><path d="M188.6,87.83s-8.23,29.86-9.45,34.18-9.39,11.85-9.39,11.85L157,139.93a4.48,4.48,0,0,1-.66-.33c-.38,6.07-1.17,12.11-1.9,18.15a39.73,39.73,0,0,0,26-8.18c17.67-13.22,19.8-56.25,19.8-56.25Z" fill="#4b1b13"></path><path d="M156.39,186.88c3.45-1.77,6.8-3.64,10.28-5.36,5.47-2.71,9.38-6.18,14.61-9.34a2.54,2.54,0,0,0,.23-.74c.23-1.83,2.37-33.71-5.42-36.58-7.57-2.79-16-.12-24,3.08a16.45,16.45,0,0,0-4.31,4.48c-2.53,4.06-2.57,9.06-2.74,13.69-.37,10.12,0,26.4-.06,36.56C148,191.39,153.5,188.36,156.39,186.88Z" fill="#4b1b13"></path><path d="M172.92,116.92a11.46,11.46,0,0,0,2.56-5.59c.77-3.8-1.65-9-5.7-9.08s-5.07,2.09-5.07,2.09-15.18-1.17-16.32,10.75h0c-.1,3.32-.72,15.38,9.23,17s5.11-11.78,5.11-11.78" fill="#4b1b13"></path><path d="M172,113.7s.72,7.7,1,10.56c.34,3-.13,11.29-5.12,11.51s-10.64-5-10.77-6.36c0,0-5.32-2.62-2.72-5.31s3.21,1.36,3.21,1.36,1.32-2.39.83-8.39A26.29,26.29,0,0,0,172,113.7Z" fill="#ffac73"></path><path d="M158.16,137.38c2.76,2.08,6.92,2.11,10.67,1.19a1.25,1.25,0,0,0,1-1.19c-.05-1.17-.1-2.34-.11-3.52l-13.71-5.1,1.83,8.24S158,137.15,158.16,137.38Z" fill="#ffac73"></path><path d="M167.37,138.88c.51-.09,1-.19,1.5-.31a1.2,1.2,0,0,0,1-1.15c0-.61-.06-1.22-.08-1.83-2.77.29-7.76.11-10.87-4.77A11.24,11.24,0,0,0,167.37,138.88Z" fill="#e5894a"></path><path d="M156.78,134.08c1.09.68,2.2,1.31,3.32,1.92a26.82,26.82,0,0,0,5,2.23c1.44.44,3.94,1.06,4.73-.75a2.74,2.74,0,0,0,0-1,6.47,6.47,0,0,1,0-1.2s-.06-.06,0-.08a5.17,5.17,0,0,0,1.68-1.72s0,0,0-.05h0s3.85,10.16,3.32,10.65-4.74-1.8-4.74-1.8-1.66,3.7-2.35,4.08-10-7.32-11.32-9.55Z" fill="#d4dee8"></path><path d="M170.82,144.72a6.06,6.06,0,0,1,0,4.17s-1.69.78-2,.65a19.11,19.11,0,0,1-3-3.41c.11-.18,1.68-3.08,1.68-3.08Z" fill="#f47a63"></path><path d="M176.53,176c-.54-3.86-5.69-27.15-5.69-27.15l-2,.65-2.16,32C169.53,180.06,173.72,177.61,176.53,176Z" fill="#f47a63"></path><path d="M168.32,122.3c-.21-2.1.91-3.93,2.5-4.09s3,1.42,3.25,3.52-.91,3.93-2.5,4.09h-.09C169.93,125.91,168.52,124.36,168.32,122.3Zm2.55-3.53c-1.28.13-2.18,1.69-2,3.48h0c.18,1.79,1.35,3.16,2.64,3s2.18-1.69,2-3.48-1.32-3.1-2.57-3Z" fill="#42210b"></path><path d="M162.08,127.3a4.41,4.41,0,0,1-.53-5.34,2.91,2.91,0,0,1,2.14-1.36c1.73-.17,3.32,1.4,3.53,3.49a4.24,4.24,0,0,1-.64,2.76,2.91,2.91,0,0,1-2.14,1.36h-.12A2.92,2.92,0,0,1,162.08,127.3Zm1.66-6.14a2.36,2.36,0,0,0-1.73,1.11,3.68,3.68,0,0,0-.55,2.39h0a3.68,3.68,0,0,0,1,2.24,2.25,2.25,0,0,0,3.64-.36,3.68,3.68,0,0,0,.55-2.4c-.17-1.75-1.43-3.08-2.83-3Z" fill="#42210b"></path><rect x="166.85" y="123.07" width="1.85" height="0.56" transform="translate(-24.43 43.21) rotate(-13.69)" fill="#42210b"></rect><rect x="158.82" y="122.28" width="0.56" height="4.22" transform="translate(12.78 263.59) rotate(-81.59)" fill="#42210b"></rect><path d="M190.15,88.57s.34-3.62-1.06-4.95-2.87-4.78-2.87-4.78h4.56s-3.23-6.09-2.94-8.88.35-5.58,2.31-5.87,6.51,6.57,7.09,9.89.09,18,.09,18" fill="#ffac73"></path><path d="M192.58,72.08a6.64,6.64,0,0,0,.42-1.35,1.82,1.82,0,0,0-.64-1.73,2,2,0,0,0,0-2,1.68,1.68,0,0,0-1.55-2.21c-2.24,0-5,2.18-4.76,4.65a1.92,1.92,0,0,0,.85,1.66,17.06,17.06,0,0,0-1.45,3.18,1.48,1.48,0,0,0,1.06,1.95,8.78,8.78,0,0,0-1.09,3.14c-.14,1.13,1.18,1.85,2.13,1.62,2.85-.7,3.58-4.38,5.54-6.23A1.61,1.61,0,0,0,192.58,72.08Z" fill="#ffac73"></path><path d="M136.37,127.23c-1.86-2.85-3.16-12.62-3.85-19.22a20.76,20.76,0,0,0-12.38-1.2c-.19,8.7,0,23.71,3.37,31.13,4.88,10.82,27.06,19.86,27.06,19.86l1.54-19.86S139.25,131.66,136.37,127.23Z" fill="#4b1b13"></path><path d="M372.36,200.52c3.55-2.47,8.44-4.47,11.83-7.2-10.17-6-25-15.25-28.74-17.58L332.07,189l20.58,12c.11,0,4.21,2.77,8.06,5.36C364.85,204.25,368,202.19,372.36,200.52Z" opacity="0.63" fill="url(#linear-gradient-2)" style="mix-blend-mode: multiply;"></path><polyline points="328.48 162.17 328.48 183.34 362.73 183.34 362.73 162.17" fill="#68e1fd"></polyline><ellipse cx="345.61" cy="162.17" rx="17.13" ry="8.43" fill="#68e1fd"></ellipse><ellipse cx="345.61" cy="162.17" rx="17.13" ry="8.43" opacity="0.73"></ellipse><ellipse cx="345.61" cy="184.17" rx="17.13" ry="8.43" fill="#68e1fd"></ellipse><path d="M364.78,112.94c-3.61-1.48-8.63-6.4-13-6.25-1.66,4.08-2.15,8.85-2.65,13a117.94,117.94,0,0,0-.5,21.69q.16,2.41.4,4.82a3.84,3.84,0,0,0,.38,1.36q0,8.38,0,16.76a.53.53,0,0,0,1.06,0q0-8.06,0-16.12a23.77,23.77,0,0,0,4.91-2.26,16.69,16.69,0,0,0,6.9-8.67c2.77-7.7,1-16.29,3.64-23.91C365.55,113.23,365.16,113.09,364.78,112.94Z" fill="#297600"></path><path d="M357.38,100.33a13.42,13.42,0,0,0-4.89,5,8.4,8.4,0,0,0-.77,1.49l-.15.32h0a22.39,22.39,0,0,0-.82,2.66,3.31,3.31,0,0,1,1.82-1.44,4.53,4.53,0,0,1,2.86-.26,12,12,0,0,1,2.62,1.4c1.23.74,2.4,1.57,3.61,2.33,5.68,3.61,13.23,4,17.61-1.28.06-.21.11-.42.15-.63C380.06,106.33,369.93,93,357.38,100.33Z" fill="#5fad00"></path><path d="M376.75,112.79c.23-.17.47-.32.71-.47a.49.49,0,0,0-.14-.41c-3.43-3.52-7.12-7-11.8-8.71a20.22,20.22,0,0,0-10.54-1c-.38.44-.73.91-1.07,1.38,3.82-1.27,8.65-.48,12.12,1,4.15,1.77,7.44,4.93,10.54,8.12A.51.51,0,0,0,376.75,112.79Z" fill="#297600"></path><path d="M319.25,120.46a14.3,14.3,0,0,0-7.65,13.72c.4,10.11,17.06.24,21.48-8.29s5.12,3.64,5.12,3.64" fill="#297600"></path><path d="M334.24,116.93a30.15,30.15,0,0,0-9.24,1.28,22.42,22.42,0,0,0-5.75,2.25,18.55,18.55,0,0,0,3.33,1.77c2.09.84,4.28,1.89,5.38,3.86a7.68,7.68,0,0,1,.64,1.52c1,3.32.14,7.36,1.5,10.7s4.16,6.3,8.09,6.53c4.69.29,6.84-4.22,7.77-8.12s2.2-9.22.71-13.23C345,118.82,338.68,117.14,334.24,116.93Z" fill="#5fad00"></path><path d="M340.42,132.7c-2-6.38-6.15-12.41-12.25-15.23h-.23l-.29.09c-.37.11-.74.19-1.11.29,7.12,2.64,11.59,9.66,13.41,16.83,2.33,9.17,1.55,19.1,1.57,28.48a.49.49,0,0,0,1,0C342.48,153.15,343.41,142.41,340.42,132.7Z" fill="#297600"></path><path d="M285.7,27S256.85,25.15,255,26s-2.59,3.9-1.89,8.16,14.45,21.4,14.45,21.4" fill="#68e1fd"></path><path d="M294.16,36.24c-.08-.3-3-13.71-16.35-8-12,5.16-12.4,20.51-11.59,24.26.66,3.05,3.78,7.22,9.81,8.72" fill="#cc6c6d"></path><ellipse cx="281.56" cy="44.91" rx="17.28" ry="12.29" transform="translate(128.43 285.42) rotate(-66.58)" fill="#f9847f"></ellipse><path d="M268.62,45.68l13.05,3.42L284.53,43l-11.81-7.36S269.34,40.85,268.62,45.68Z" fill="#fff"></path><ellipse cx="282.92" cy="45.98" rx="3.37" ry="2.71" transform="translate(113.75 277.37) rotate(-63.06)" fill="#f7d600"></ellipse><path d="M309.47,28l-5.86,5.86c-2,2,1.12,5.2,3.16,3.16l5.86-5.86C314.67,29.17,311.51,26,309.47,28Z" fill="#f7d600"></path><path d="M321.45,44.2H310.28c-2.88,0-2.88,4.47,0,4.47h11.17C324.32,48.67,324.33,44.2,321.45,44.2Z" fill="#f7d600"></path><path d="M311.13,60.79l-5.3-5c-2.09-2-5.25,1.18-3.16,3.16l5.3,5C310.06,65.93,313.22,62.78,311.13,60.79Z" fill="#f7d600"></path><path d="M236.73,94.31l-1.79,21.86s14.18-2.1,17.55-21.29l-.12-4Z" fill="#cee831"></path><path d="M236.73,94.31,243,74.38s9.78,1.79,8.4,17.71Z" fill="#ffa513"></path><path d="M231.15,119.72a12.27,12.27,0,0,1-2.12-.46c-4.6-1.43-8-5.44-9.64-11.27a33.19,33.19,0,0,1,.73-18.43C224.4,75.81,235,67.31,244.33,70.2c4.6,1.43,8,5.44,9.64,11.27a33.19,33.19,0,0,1-.73,18.43h0a33.2,33.2,0,0,1-9.87,15.58C239.43,118.76,235.16,120.23,231.15,119.72ZM241.7,74.09c-6.48-.82-14.19,6.46-17.41,16.78a28.78,28.78,0,0,0-.69,16c1.21,4.35,3.59,7.28,6.73,8.26s6.76-.08,10.23-3a28.79,28.79,0,0,0,8.5-13.52h0a28.79,28.79,0,0,0,.69-16c-1.21-4.35-3.59-7.28-6.73-8.26A7.63,7.63,0,0,0,241.7,74.09Z" fill="#5fad00"></path><path d="M222.53,136.1,259.3,115a1.5,1.5,0,0,0-1.51-2.59L221,133.51a1.5,1.5,0,0,0,1.51,2.59Z" fill="#a2c609"></path><path d="M222.53,143l36.77-21.1a1.5,1.5,0,0,0-1.51-2.59L221,140.36a1.5,1.5,0,0,0,1.51,2.59Z" fill="#a2c609"></path><polygon points="150.09 61.57 151.59 60.75 154.12 64.17 154 59.45 155.59 58.58 155.82 67.51 154.41 68.27 151.79 64.72 151.92 69.62 150.32 70.49 150.09 61.57" fill="#fff"></polygon><polygon points="156.63 58.02 161.32 55.48 161.37 57.59 158.28 59.26 158.32 60.62 161.12 59.09 161.17 61.05 158.37 62.56 158.41 63.97 161.54 62.28 161.59 64.38 156.86 66.94 156.63 58.02" fill="#fff"></polygon><polygon points="161.8 55.23 163.51 54.3 164.65 58.91 165.65 53.12 167.04 52.35 168.3 56.94 169.18 51.22 170.85 50.32 169.13 60.36 167.73 61.12 166.42 56.62 165.39 62.39 163.98 63.16 161.8 55.23" fill="#fff"></polygon><path d="M147.18,78.6l2.72,7.63-1.74.95-.46-1.37L145.45,87l-.38,1.81-1.7.93,2.25-10.33Zm-1.31,6.25,1.31-.71L146.47,82l-.6,2.89" fill="#fff"></path><path d="M140.41,82.15l0,0a1.7,1.7,0,0,1,2.53.52l-1.18,2.1a.91.91,0,0,0-1.3-.36h0a3.62,3.62,0,0,0-1.31,3.1c0,1.36.64,2.1,1.46,1.65h0a3.21,3.21,0,0,0,1.26-1.78l1.25.67a5.84,5.84,0,0,1-2.46,3.37l-.06,0c-1.67.91-3.06-.32-3.13-3v0C137.43,85.85,138.66,83.13,140.41,82.15Z" fill="#fff"></path><polygon points="150.24 77 151.95 76.08 153.43 78.78 154.73 74.57 156.43 73.65 156.66 82.57 155.06 83.44 154.93 78.32 153.53 82.62 153.49 82.64 151.92 79.97 152.05 85.06 150.47 85.92 150.24 77" fill="#fff"></polygon><path d="M166.07,68.36,168.78,76l-1.73.94-.47-1.37-2.25,1.22L164,78.61l-1.69.92,2.24-10.32Zm-1.31,6.25,1.31-.7-.72-2.19-.59,2.89" fill="#fff"></path><path d="M160,71.73c1.48-.8,2.45-.15,2.5,1.83a4.94,4.94,0,0,1-2.37,4.56l-.06,0-.8.44.07,2.54L157.7,82l-.23-8.93Zm.89,2.84v0c0-.77-.38-1-1-.66l-.76.41.06,2.36.76-.42,0,0a1.81,1.81,0,0,0,.86-1.64" fill="#fff"></path><polygon points="169.15 66.75 170.78 65.88 171.01 74.8 169.38 75.68 169.15 66.75" fill="#fff"></polygon><path d="M174.74,63.55l0,0a2,2,0,0,1,2.4,0l-.9,2.26a1.2,1.2,0,0,0-1.43-.08h0A3.81,3.81,0,0,0,173.42,69c0,1.46.72,2.14,1.65,1.64l0,0a2.43,2.43,0,0,0,.88-.86l0-1.08-1.15.63,0-1.82L177.45,66l.1,4a6.68,6.68,0,0,1-2.45,2.71l-.05,0c-1.81,1-3.22-.19-3.29-2.89v0C171.69,67.28,173,64.55,174.74,63.55Z" fill="#fff"></path><polygon points="178.25 61.83 179.76 61.01 182.28 64.43 182.16 59.71 183.76 58.84 183.99 67.77 182.57 68.53 179.96 64.99 180.08 69.88 178.48 70.75 178.25 61.83" fill="#fff"></polygon></g></g></svg>